{"title":"Mission Impossible 5 Rogue Nation 2015 Movies Lat HDCam x264 â˜»rD","uid":12179805,"size":740374529,"categoryP":"video","categoryS":"movies","magnet":"?xt=urn:btih:c2521ddfd3f7986f50f5ad4a725eb17f0d71c44f&amp;dn=Mission+Impossible+5+Rogue+Nation+2015+Movies+Lat+HDCam+x264+%E2%98%BBrD&amp;tr=udp%3A%2F%2Ftracker.openbittorrent.com%3A80&amp;tr=udp%3A%2F%2Fopen.demonii.com%3A1337&amp;tr=udp%3A%2F%2Ftracker.coppersurfer.tk%3A6969&amp;tr=udp%3A%2F%2Fexodus.desync.com%3A6969","seeders":0,"leechers":1,"uploader":"basicssom","files":2,"time":1438407216,"description":"----------------------------------------------------------------\nMission Impossible 5 Rogue Nation 2015 Movies Lat HDCam x264 AAC with Sample ~ â˜»rDXâ˜»\n\nSCREEN SHOTS &amp; POSTER:\n &lt;a href=&quot;\nhttp://imagehosting4u.com/2015/8/MI5RN/11.html&quot; rel=&quot;nofollow&quot; target=&quot;_NEW&quot;&gt;\nhttp://imagehosting4u.com/2015/8/MI5RN/11.html&lt;/a&gt; &lt;a href=&quot;\nhttp://imagehosting4u.com/2015/8/MI5RN/1.html&quot; rel=&quot;nofollow&quot; target=&quot;_NEW&quot;&gt;\nhttp://imagehosting4u.com/2015/8/MI5RN/1.html&lt;/a&gt; &lt;a href=&quot;\nhttp://imagehosting4u.com/2015/8/MI5RN/2.html&quot; rel=&quot;nofollow&quot; target=&quot;_NEW&quot;&gt;\nhttp://imagehosting4u.com/2015/8/MI5RN/2.html&lt;/a&gt; &lt;a href=&quot;\nhttp://imagehosting4u.com/2015/8/MI5RN/3.html&quot; rel=&quot;nofollow&quot; target=&quot;_NEW&quot;&gt;\nhttp://imagehosting4u.com/2015/8/MI5RN/3.html&lt;/a&gt; &lt;a href=&quot;\nhttp://imagehosting4u.com/2015/8/MI5RN/4.html&quot; rel=&quot;nofollow&quot; target=&quot;_NEW&quot;&gt;\nhttp://imagehosting4u.com/2015/8/MI5RN/4.html&lt;/a&gt; &lt;a href=&quot;\nhttp://imagehosting4u.com/2015/8/MI5RN/5.html&quot; rel=&quot;nofollow&quot; target=&quot;_NEW&quot;&gt;\nhttp://imagehosting4u.com/2015/8/MI5RN/5.html&lt;/a&gt; &lt;a href=&quot;\nhttp://imagehosting4u.com/2015/8/MI5RN/6.html&quot; rel=&quot;nofollow&quot; target=&quot;_NEW&quot;&gt;\nhttp://imagehosting4u.com/2015/8/MI5RN/6.html&lt;/a&gt; &lt;a href=&quot;\nhttp://imagehosting4u.com/2015/8/MI5RN/7.html&quot; rel=&quot;nofollow&quot; target=&quot;_NEW&quot;&gt;\nhttp://imagehosting4u.com/2015/8/MI5RN/7.html&lt;/a&gt; &lt;a href=&quot;\nhttp://imagehosting4u.com/2015/8/MI5RN/8.html&quot; rel=&quot;nofollow&quot; target=&quot;_NEW&quot;&gt;\nhttp://imagehosting4u.com/2015/8/MI5RN/8.html&lt;/a&gt; &lt;a href=&quot;\nhttp://imagehosting4u.com/2015/8/MI5RN/9.html&quot; rel=&quot;nofollow&quot; target=&quot;_NEW&quot;&gt;\nhttp://imagehosting4u.com/2015/8/MI5RN/9.html&lt;/a&gt; &lt;a href=&quot;\nhttp://imagehosting4u.com/2015/8/MI5RN/10.html&quot; rel=&quot;nofollow&quot; target=&quot;_NEW&quot;&gt;\nhttp://imagehosting4u.com/2015/8/MI5RN/10.html&lt;/a&gt;\n\nFormat                                   : Matroska\nFormat version                           : Version 4 / Version 2\nFile size                                : 701 MiB\nOverall bit rate                         : 829 Kbps\nMovie name                               : Mission Impossible 5 Rogue Nation 2015 Movies Lat HDCam x264 AAC ~ rDX ~\n\nVideo\nID                                       : 1\nFormat                                   : AVC\nFormat/Info                              : Advanced Video Codec\nFormat profile                           : &lt;a class=&quot;__cf_email__&quot; href=&quot;/cdn-cgi/l/email-protection&quot; data-cfemail=&quot;e0a8898788a0acd3ced1&quot;&gt;[email&amp;#160;protected]&lt;/a&gt;&lt;script data-cfhash='f9e31' type=&quot;text/javascript&quot;&gt;\n/* &lt;![CDATA[ */!function(){try{var t=&quot;currentScript&quot;in document?document.currentScript:function(){for(var t=document.getElementsByTagName(&quot;script&quot;),e=t.length;e--;)if(t[e].getAttribute(&quot;data-cfhash&quot;))return t[e]}();if(t&amp;&amp;t.previousSibling){var e,r,n,i,c=t.previousSibling,a=c.getAttribute(&quot;data-cfemail&quot;);if(a){for(e=&quot;&quot;,r=parseInt(a.substr(0,2),16),n=2;a.length-n;n+=2)i=parseInt(a.substr(n,2),16)^r,e+=String.fromCharCode(i);e=document.createTextNode(e),c.parentNode.replaceChild(e,c)}t.parentNode.removeChild(t);}}catch(u){}}()/* ]]&gt; */&lt;/script&gt;\nFormat settings, CABAC                   : Yes\nFormat settings, ReFrames                : 4 frames\nCodec ID                                 : V_MPEG4/ISO/AVC\nBit rate                                 : 685 Kbps\nWidth                                    : 720 pixels\nHeight                                   : 400 pixels\nDisplay aspect ratio                     : 16:9\nFrame rate mode                          : Constant\nFrame rate                               : 60.000 fps\nColor space                              : YUV\nChroma subsampling                       : 4:2:0\nBit depth                                : 8 bits\nScan type                                : Progressive\nBits/(Pixel*Frame)                       : 0.040\nStream size                              : 579 MiB (83%)\nTitle                                    : ~ rDX ~\nDefault                                  : Yes\nForced                                   : No\n\nAudio\nID                                       : 2\nFormat                                   : AC-3\nFormat/Info                              : Audio Coding 3\nMode extension                           : CM (complete main)\nFormat settings, Endianness              : Big\nCodec ID                                 : A_AC3\nBit rate mode                            : Constant\nBit rate                                 : 128 Kbps\nChannel(s)                               : 2 channels\nChannel positions                        : Front: L R\nSampling rate                            : 48.0 KHz\nBit depth                                : 16 bits\nCompression mode                         : Lossy\nDelay relative to video                  : 8ms\nStream size                              : 108 MiB (15%)\nTitle                                    : ~ rDX ~\nLanguage                                 : unknown\nDefault                                  : Yes\nForced                                   : No","torrent":{"xt":"urn:btih:c2521ddfd3f7986f50f5ad4a725eb17f0d71c44f","amp;dn":"Mission+Impossible+5+Rogue+Nation+2015+Movies+Lat+HDCam+x264+%E2%98%BBrD","amp;tr":["udp%3A%2F%2Ftracker.openbittorrent.com%3A80","udp%3A%2F%2Fopen.demonii.com%3A1337","udp%3A%2F%2Ftracker.coppersurfer.tk%3A6969","udp%3A%2F%2Fexodus.desync.com%3A6969"],"infoHash":"c2521ddfd3f7986f50f5ad4a725eb17f0d71c44f","infoHashBuffer":{"type":"Buffer","data":[194,82,29,223,211,247,152,111,80,245,173,74,114,94,177,127,13,113,196,79]},"announce":[],"urlList":[]}}